<?xml version="1.0" encoding="UTF-8"?>
<svg xmlns="http://www.w3.org/2000/svg" xmlns:xlink="http://www.w3.org/1999/xlink" width="480px" height="479px" viewBox="0 0 480 479" version="1.1">
<g id="surface1">
<path style=" stroke:none;fill-rule:evenodd;fill:rgb(100%,100%,100%);fill-opacity:1;" d="M 1.167969 0.625 L 479.226563 0.625 L 479.226563 478.679688 L 1.167969 478.679688 L 1.167969 0.625 "/>
<path style="fill:none;stroke-width:5.6693;stroke-linecap:butt;stroke-linejoin:miter;stroke:rgb(100%,100%,100%);stroke-opacity:1;stroke-miterlimit:22.9256;" d="M 11.679688 4783.75 L 4792.265625 4783.75 L 4792.265625 3.203125 L 11.679688 3.203125 Z M 11.679688 4783.75 " transform="matrix(0.1,0,0,-0.1,0,479)"/>
<path style=" stroke:none;fill-rule:evenodd;fill:rgb(0%,0%,0%);fill-opacity:1;" d="M 240.199219 40.011719 C 129.9375 40.011719 40.558594 129.394531 40.558594 239.652344 C 40.558594 349.910156 129.9375 439.292969 240.199219 439.292969 C 350.457031 439.292969 439.839844 349.910156 439.839844 239.652344 C 439.839844 129.394531 350.457031 40.011719 240.199219 40.011719 Z M 240.199219 43.585938 C 131.914063 43.585938 44.128906 131.367188 44.128906 239.652344 C 44.128906 347.9375 131.914063 435.71875 240.199219 435.71875 C 348.484375 435.71875 436.265625 347.9375 436.265625 239.652344 C 436.265625 131.367188 348.484375 43.585938 240.199219 43.585938 Z M 180.460938 149.242188 L 192.613281 143.625 L 195.171875 315.648438 L 211.558594 323.078125 L 211.558594 348.300781 L 183.234375 334.984375 Z M 244.347656 363.714844 L 241.652344 316.195313 L 231.433594 313.960938 L 229.015625 356.507813 L 216.460938 350.605469 L 226.339844 128.101563 L 238.179688 122.648438 L 255.992188 357.65625 Z M 232.070313 284.574219 L 238.460938 284.574219 L 234.308594 233.148438 Z M 145.003906 165.582031 L 157.144531 159.984375 L 159.28125 303.027344 L 176.210938 310.238281 L 176.0625 331.617188 L 147.277344 318.085938 Z M 138.53125 313.972656 L 122.925781 175.753906 L 110.128906 181.648438 L 97.476563 294.671875 L 110.292969 300.699219 L 112.832031 280.113281 L 122.484375 284.019531 L 124.660156 307.453125 Z M 114.328125 263.667969 L 117.609375 233.453125 L 121.191406 265.46875 Z M 75.371094 284.28125 L 75.609375 255.074219 L 85.628906 255.074219 C 92.003906 255.074219 96.382813 252.550781 96.132813 245.859375 L 94.355469 198.183594 C 94.15625 192.789063 90.402344 190.742188 84.957031 193.25 L 61.558594 204.03125 L 62.222656 278.101563 Z M 74.511719 212.074219 L 74.414063 238.742188 C 78.339844 242.292969 83.351563 241.558594 83.242188 237.402344 L 82.570313 212.648438 C 82.449219 208.179688 79.09375 208.589844 74.511719 212.074219 Z M 263.816406 353.585938 L 259.78125 131.867188 L 275.675781 138.648438 C 287.222656 143.578125 294.136719 155.121094 294.449219 172.820313 L 296.84375 308.925781 C 297.109375 324.21875 293.664063 338.046875 283.054688 343.570313 Z M 274.109375 164.445313 L 276.800781 319.394531 C 281.09375 317.703125 282.859375 313.925781 282.78125 307.429688 L 281.285156 180 C 281.179688 170.695313 278.433594 165.769531 274.109375 164.445313 Z M 304.960938 151.148438 L 318.515625 156.933594 L 321.273438 323.675781 L 307.929688 330.621094 Z M 330.414063 162.011719 L 343.394531 167.546875 L 345.707031 280.808594 C 345.886719 289.550781 344.488281 292.265625 349.746094 289.832031 C 352.398438 288.601563 354.308594 286.789063 354.1875 280.808594 L 351.949219 171.199219 L 364.003906 176.34375 L 366.136719 287.617188 C 366.296875 295.890625 364.8125 301.011719 358.730469 304.179688 L 344.515625 311.578125 C 336.988281 315.496094 332.949219 312.433594 332.84375 301.132813 Z M 419.984375 272.292969 L 418.605469 199.644531 L 408.613281 195.382813 L 398.003906 230.96875 L 387.789063 186.496094 L 376.429688 181.648438 L 378.722656 293.773438 L 391.105469 287.328125 L 390.535156 252.503906 L 396.539063 275.0625 L 401.8125 273.453125 L 407.234375 251.332031 L 407.84375 278.613281 Z M 111.851563 116.5625 L 117.519531 122.066406 L 120.484375 119.1875 L 114.558594 113.515625 Z M 96.445313 136.453125 L 93.484375 139.839844 L 119.5625 158.890625 L 126.199219 149.777344 L 123.359375 147.285156 L 118.28125 153.464844 Z M 161.511719 117.648438 L 154.179688 122.746094 C 152.972656 123.585938 151.015625 123.015625 150.179688 121.808594 L 134.996094 99.972656 C 134.15625 98.765625 134.457031 97.089844 135.664063 96.253906 L 142.996094 91.152344 C 144.203125 90.3125 145.878906 90.613281 146.714844 91.820313 L 161.898438 113.65625 C 162.738281 114.863281 162.71875 116.808594 161.511719 117.648438 Z M 152.671875 119.140625 L 158.429688 114.941406 L 144.382813 94.738281 L 138.738281 98.785156 Z M 166.753906 78.046875 L 180.554688 107.273438 L 183.855469 105.828125 L 171.578125 80.097656 L 175.4375 78.230469 C 176.890625 77.527344 178.070313 77.753906 178.816406 79.011719 L 180.988281 82.691406 C 182.546875 85.339844 182.28125 87.386719 178.816406 89.808594 L 189.09375 103.742188 L 192.695313 102.441406 L 184.0625 90.230469 C 185.851563 88.949219 186.773438 86.90625 185.390625 84.140625 L 181.53125 76.421875 C 180.316406 73.996094 177.945313 72.734375 175.136719 74.066406 Z M 202.40625 66.488281 L 205.957031 65.878906 L 212.386719 97.152344 L 208.859375 97.882813 Z M 266.242188 63.777344 L 270.046875 64.523438 L 264.890625 96.585938 L 261.0625 95.980469 Z M 233.839844 65.78125 L 240.953125 65.78125 L 240.953125 70.523438 L 244.503906 70.523438 L 244.503906 65.453125 C 244.503906 63.378906 242.808594 61.683594 240.734375 61.683594 L 234.058594 61.683594 C 231.984375 61.683594 230.289063 63.378906 230.289063 65.453125 L 230.289063 90.78125 C 230.289063 92.855469 231.984375 94.554688 234.058594 94.554688 L 240.734375 94.554688 C 242.808594 94.554688 244.503906 92.855469 244.503906 90.78125 L 244.503906 80.355469 C 244.503906 78.414063 243.816406 77.761719 241.980469 77.761719 L 237.707031 77.761719 L 237.707031 81.71875 L 240.953125 81.71875 L 240.953125 90.929688 L 233.839844 90.929688 Z M 296.5 105.8125 L 307.859375 75.519531 L 303.867188 73.421875 L 297.351563 90.933594 L 297.421875 71.386719 L 294.199219 70.195313 L 282.515625 100.757813 L 286.589844 102.0625 L 293.566406 84.070313 L 292.933594 104.367188 Z M 324.660156 121.578125 L 336.691406 91.058594 L 333.257813 88.328125 L 309.941406 112.3125 L 313.609375 114.394531 L 318.894531 109.484375 L 323.941406 112.988281 L 321.019531 119.054688 Z M 325.480469 109.625 L 330.664063 96.875 L 321.277344 106.824219 Z M 345.234375 139.457031 L 348.691406 135.917969 L 343.382813 130.457031 L 362.839844 110.921875 L 359.84375 107.921875 L 336.433594 130.972656 Z M 361.660156 160.136719 L 365.226563 157.300781 L 361.863281 152.53125 L 370.34375 145.933594 L 373.730469 150.742188 L 376.839844 148.300781 L 373.46875 143.5 L 381.210938 137.460938 L 384.609375 142.277344 L 387.386719 140.117188 L 381.832031 132.246094 L 356.109375 152.265625 Z M 136.542969 384.015625 L 139.261719 380.359375 L 134.785156 376.613281 L 141.289063 368.0625 L 145.800781 371.84375 L 148.179688 368.6875 L 143.691406 364.910156 L 149.628906 357.085938 L 154.144531 360.871094 L 156.273438 358.070313 L 148.890625 351.890625 L 129.15625 377.832031 Z M 225.328125 384.042969 L 228.917969 384.320313 L 227.472656 416.21875 L 223.878906 416.0625 Z M 296.117188 373.964844 L 299.503906 372.734375 L 311.378906 402.375 L 308.039063 403.71875 Z M 128.363281 331.28125 L 134.488281 338.324219 C 135.628906 339.640625 134.855469 341.523438 133.746094 343.121094 L 117.105469 358.4375 C 114.925781 360.445313 112.101563 360.347656 110.566406 358.804688 L 104.777344 352.988281 Z M 128.089844 336.421875 L 110.316406 352.78125 L 113.8125 356.578125 L 116.433594 354.164063 L 131.621094 340.203125 Z M 159.726563 397.160156 L 156.300781 395.039063 L 170.816406 366.773438 L 178.875 370.90625 C 181.019531 372.003906 181.613281 374.4375 180.472656 376.691406 L 175.335938 386.824219 C 174.332031 388.808594 172.167969 389.800781 170.203125 388.601563 L 165.820313 385.933594 Z M 173.230469 372.273438 L 177.1875 374.703125 L 171.777344 384.5625 L 167.75 382.378906 Z M 199.699219 410.75 L 191.007813 408.699219 C 189.574219 408.363281 188.695313 406.527344 189.03125 405.097656 L 195.515625 377.550781 C 196.878906 377.996094 197.980469 378.316406 199.363281 378.726563 L 193.042969 404.96875 L 199.65625 406.648438 L 205.746094 380.503906 C 206.925781 380.796875 208.109375 381.078125 209.296875 381.34375 L 202.925781 408.371094 C 202.589844 409.800781 201.128906 411.085938 199.699219 410.75 Z M 254.691406 393.105469 L 258.199219 393.105469 L 258.199219 388.867188 C 258.058594 385.472656 255.871094 384.386719 252.335938 384.375 C 248.25 384.359375 246.414063 386.164063 246.28125 390.503906 C 246.183594 393.605469 246.78125 395.480469 248.15625 396.855469 L 255.539063 404.238281 L 255.539063 413.253906 L 251.664063 413.253906 L 251.664063 407.324219 L 247.429688 407.324219 L 247.429688 412.949219 C 247.429688 416.097656 250.207031 417.078125 253.664063 416.945313 C 256.890625 416.820313 259.652344 416.464844 259.652344 413.617188 L 259.652344 405.570313 C 259.652344 403.847656 258.835938 402.199219 257.597656 400.96875 L 250.03125 393.46875 L 250.03125 388.625 L 254.632813 388.625 Z M 340.683594 386.210938 L 333.351563 391.308594 C 332.144531 392.148438 330.191406 391.578125 329.351563 390.371094 L 326.011719 385.566406 L 329.164063 383.222656 L 332.085938 387.421875 L 337.601563 383.503906 L 331.792969 375.144531 L 326.097656 379.09375 C 324.003906 380.542969 322.109375 379.957031 320.714844 377.953125 L 314.167969 368.535156 C 313.328125 367.328125 313.628906 365.652344 314.835938 364.816406 L 322.167969 359.714844 C 323.375 358.878906 325.050781 359.179688 325.890625 360.386719 L 341.070313 382.222656 C 341.910156 383.425781 341.890625 385.371094 340.683594 386.210938 Z M 329.523438 371.886719 L 323.554688 363.300781 L 317.960938 367.167969 L 323.925781 375.753906 Z M 343.664063 342.234375 L 352.636719 362.015625 L 355.910156 358.820313 L 350.734375 353.261719 L 353.703125 350.523438 L 365.957031 364.222656 L 362.988281 366.886719 L 358.421875 361.789063 L 351.648438 368.257813 L 340.925781 344.902344 Z M 355.117188 329.324219 L 359.257813 333.855469 L 362 331.265625 L 360.019531 329.210938 L 362.609375 325.480469 L 381.636719 346.871094 L 384.070313 343.597656 L 362.433594 319.148438 L 355.117188 329.324219 "/>
<path style="fill:none;stroke-width:0.0992;stroke-linecap:butt;stroke-linejoin:miter;stroke:rgb(9.812927%,9.812927%,9.812927%);stroke-opacity:1;stroke-miterlimit:22.9256;" d="M 2401.992188 4389.882813 C 1299.375 4389.882813 405.585938 3496.054688 405.585938 2393.476563 C 405.585938 1290.898438 1299.375 397.070313 2401.992188 397.070313 C 3504.570313 397.070313 4398.398438 1290.898438 4398.398438 2393.476563 C 4398.398438 3496.054688 3504.570313 4389.882813 2401.992188 4389.882813 Z M 2401.992188 4354.140625 C 1319.140625 4354.140625 441.289063 3476.328125 441.289063 2393.476563 C 441.289063 1310.625 1319.140625 432.8125 2401.992188 432.8125 C 3484.84375 432.8125 4362.65625 1310.625 4362.65625 2393.476563 C 4362.65625 3476.328125 3484.84375 4354.140625 2401.992188 4354.140625 Z M 1804.609375 3297.578125 L 1926.132813 3353.75 L 1951.71875 1633.515625 L 2115.585938 1559.21875 L 2115.585938 1306.992188 L 1832.34375 1440.15625 Z M 2443.476563 1152.851563 L 2416.523438 1628.046875 L 2314.335938 1650.390625 L 2290.15625 1224.921875 L 2164.609375 1283.945313 L 2263.398438 3508.984375 L 2381.796875 3563.515625 L 2559.921875 1213.4375 Z M 2320.703125 1944.257813 L 2384.609375 1944.257813 L 2343.085938 2458.515625 Z M 1450.039063 3134.179688 L 1571.445313 3190.15625 L 1592.8125 1759.726563 L 1762.109375 1687.617188 L 1760.625 1473.828125 L 1472.773438 1609.140625 Z M 1385.3125 1650.273438 L 1229.257813 3032.460938 L 1101.289063 2973.515625 L 974.765625 1843.28125 L 1102.929688 1783.007813 L 1128.320313 1988.867188 L 1224.84375 1949.804688 L 1246.601563 1715.46875 Z M 1143.28125 2153.320313 L 1176.09375 2455.46875 L 1211.914063 2135.3125 Z M 753.710938 1947.1875 L 756.09375 2239.257813 L 856.289063 2239.257813 C 920.039063 2239.257813 963.828125 2264.492188 961.328125 2331.40625 L 943.554688 2808.164063 C 941.5625 2862.109375 904.023438 2882.578125 849.570313 2857.5 L 615.585938 2749.6875 L 622.226563 2008.984375 Z M 745.117188 2669.257813 L 744.140625 2402.578125 C 783.398438 2367.070313 833.515625 2374.414063 832.421875 2415.976563 L 825.703125 2663.515625 C 824.492188 2708.203125 790.9375 2704.101563 745.117188 2669.257813 Z M 2638.164063 1254.140625 L 2597.8125 3471.328125 L 2756.757813 3403.515625 C 2872.226563 3354.21875 2941.367188 3238.789063 2944.492188 3061.796875 L 2968.4375 1700.742188 C 2971.09375 1547.8125 2936.640625 1409.53125 2830.546875 1354.296875 Z M 2741.09375 3145.546875 L 2768.007813 1596.054688 C 2810.9375 1612.96875 2828.59375 1650.742188 2827.8125 1715.703125 L 2812.851563 2990 C 2811.796875 3083.046875 2784.335938 3132.304688 2741.09375 3145.546875 Z M 3049.609375 3278.515625 L 3185.15625 3220.664063 L 3212.734375 1553.242188 L 3079.296875 1483.789063 Z M 3304.140625 3169.882813 L 3433.945313 3114.53125 L 3457.070313 1981.914063 C 3458.867188 1894.492188 3444.882813 1867.34375 3497.460938 1891.679688 C 3523.984375 1903.984375 3543.085938 1922.109375 3541.875 1981.914063 L 3519.492188 3078.007813 L 3640.039063 3026.5625 L 3661.367188 1913.828125 C 3662.96875 1831.09375 3648.125 1779.882813 3587.304688 1748.203125 L 3445.15625 1674.21875 C 3369.882813 1635.039063 3329.492188 1665.664063 3328.4375 1778.671875 Z M 4199.84375 2067.070313 L 4186.054688 2793.554688 L 4086.132813 2836.171875 L 3980.039063 2480.3125 L 3877.890625 2925.039063 L 3764.296875 2973.515625 L 3787.226563 1852.265625 L 3911.054688 1916.71875 L 3905.351563 2264.960938 L 3965.390625 2039.375 L 4018.125 2055.46875 L 4072.34375 2276.679688 L 4078.4375 2003.867188 Z M 1118.515625 3624.375 L 1175.195313 3569.335938 L 1204.84375 3598.125 L 1145.585938 3654.84375 Z M 964.453125 3425.46875 L 934.84375 3391.601563 L 1195.625 3201.09375 L 1261.992188 3292.226563 L 1233.59375 3317.148438 L 1182.8125 3255.351563 Z M 1615.117188 3613.515625 L 1541.796875 3562.539063 C 1529.726563 3554.140625 1510.15625 3559.84375 1501.796875 3571.914063 L 1349.960938 3790.273438 C 1341.5625 3802.34375 1344.570313 3819.101563 1356.640625 3827.460938 L 1429.960938 3878.476563 C 1442.03125 3886.875 1458.789063 3883.867188 1467.148438 3871.796875 L 1618.984375 3653.4375 C 1627.382813 3641.367188 1627.1875 3621.914063 1615.117188 3613.515625 Z M 1526.71875 3598.59375 L 1584.296875 3640.585938 L 1443.828125 3842.617188 L 1387.382813 3802.148438 Z M 1667.539063 4009.53125 L 1805.546875 3717.265625 L 1838.554688 3731.71875 L 1715.78125 3989.023438 L 1754.375 4007.695313 C 1768.90625 4014.726563 1780.703125 4012.460938 1788.164063 3999.882813 L 1809.882813 3963.085938 C 1825.46875 3936.601563 1822.8125 3916.132813 1788.164063 3891.914063 L 1890.9375 3752.578125 L 1926.953125 3765.585938 L 1840.625 3887.695313 C 1858.515625 3900.507813 1867.734375 3920.9375 1853.90625 3948.59375 L 1815.3125 4025.78125 C 1803.164063 4050.039063 1779.453125 4062.65625 1751.367188 4049.335938 Z M 2024.0625 4125.117188 L 2059.570313 4131.210938 L 2123.867188 3818.476563 L 2088.59375 3811.171875 Z M 2662.421875 4152.226563 L 2700.46875 4144.765625 L 2648.90625 3824.140625 L 2610.625 3830.195313 Z M 2338.398438 4132.1875 L 2409.53125 4132.1875 L 2409.53125 4084.765625 L 2445.039063 4084.765625 L 2445.039063 4135.46875 C 2445.039063 4156.210938 2428.085938 4173.164063 2407.34375 4173.164063 L 2340.585938 4173.164063 C 2319.84375 4173.164063 2302.890625 4156.210938 2302.890625 4135.46875 L 2302.890625 3882.1875 C 2302.890625 3861.445313 2319.84375 3844.453125 2340.585938 3844.453125 L 2407.34375 3844.453125 C 2428.085938 3844.453125 2445.039063 3861.445313 2445.039063 3882.1875 L 2445.039063 3986.445313 C 2445.039063 4005.859375 2438.164063 4012.382813 2419.804688 4012.382813 L 2377.070313 4012.382813 L 2377.070313 3972.8125 L 2409.53125 3972.8125 L 2409.53125 3880.703125 L 2338.398438 3880.703125 Z M 2965 3731.875 L 3078.59375 4034.804688 L 3038.671875 4055.78125 L 2973.515625 3880.664063 L 2974.21875 4076.132813 L 2941.992188 4088.046875 L 2825.15625 3782.421875 L 2865.898438 3769.375 L 2935.664063 3949.296875 L 2929.335938 3746.328125 Z M 3246.601563 3574.21875 L 3366.914063 3879.414063 L 3332.578125 3906.71875 L 3099.414063 3666.875 L 3136.09375 3646.054688 L 3188.945313 3695.15625 L 3239.414063 3660.117188 L 3210.195313 3599.453125 Z M 3254.804688 3693.75 L 3306.640625 3821.25 L 3212.773438 3721.757813 Z M 3452.34375 3395.429688 L 3486.914063 3430.820313 L 3433.828125 3485.429688 L 3628.398438 3680.78125 L 3598.4375 3710.78125 L 3364.335938 3480.273438 Z M 3616.601563 3188.632813 L 3652.265625 3216.992188 L 3618.632813 3264.6875 L 3703.4375 3330.664063 L 3737.304688 3282.578125 L 3768.398438 3306.992188 L 3734.6875 3355 L 3812.109375 3415.390625 L 3846.09375 3367.226563 L 3873.867188 3388.828125 L 3818.320313 3467.539063 L 3561.09375 3267.34375 Z M 1365.429688 949.84375 L 1392.617188 986.40625 L 1347.851563 1023.867188 L 1412.890625 1109.375 L 1458.007813 1071.5625 L 1481.796875 1103.125 L 1436.914063 1140.898438 L 1496.289063 1219.140625 L 1541.445313 1181.289063 L 1562.734375 1209.296875 L 1488.90625 1271.09375 L 1291.5625 1011.679688 Z M 2253.28125 949.570313 L 2289.179688 946.796875 L 2274.726563 627.8125 L 2238.789063 629.375 Z M 2961.171875 1050.351563 L 2995.039063 1062.65625 L 3113.789063 766.25 L 3080.390625 752.8125 Z M 1283.632813 1477.1875 L 1344.882813 1406.757813 C 1356.289063 1393.59375 1348.554688 1374.765625 1337.460938 1358.789063 L 1171.054688 1205.625 C 1149.257813 1185.546875 1121.015625 1186.523438 1105.664063 1201.953125 L 1047.773438 1260.117188 Z M 1280.898438 1425.78125 L 1103.164063 1262.1875 L 1138.125 1224.21875 L 1164.335938 1248.359375 L 1316.210938 1387.96875 Z M 1597.265625 818.398438 L 1563.007813 839.609375 L 1708.164063 1122.265625 L 1788.75 1080.9375 C 1810.195313 1069.960938 1816.132813 1045.625 1804.726563 1023.085938 L 1753.359375 921.757813 C 1743.320313 901.914063 1721.679688 891.992188 1702.03125 903.984375 L 1658.203125 930.664063 Z M 1732.304688 1067.265625 L 1771.875 1042.96875 L 1717.773438 944.375 L 1677.5 966.210938 Z M 1996.992188 682.5 L 1910.078125 703.007813 C 1895.742188 706.367188 1886.953125 724.726563 1890.3125 739.023438 L 1955.15625 1014.492188 C 1968.789063 1010.039063 1979.804688 1006.835938 1993.632813 1002.734375 L 1930.429688 740.3125 L 1996.5625 723.515625 L 2057.460938 984.960938 C 2069.257813 982.03125 2081.09375 979.21875 2092.96875 976.5625 L 2029.257813 706.289063 C 2025.898438 691.992188 2011.289063 679.140625 1996.992188 682.5 Z M 2546.914063 858.945313 L 2581.992188 858.945313 L 2581.992188 901.328125 C 2580.585938 935.273438 2558.710938 946.132813 2523.359375 946.25 C 2482.5 946.40625 2464.140625 928.359375 2462.8125 884.960938 C 2461.835938 853.945313 2467.8125 835.195313 2481.5625 821.445313 L 2555.390625 747.617188 L 2555.390625 657.460938 L 2516.640625 657.460938 L 2516.640625 716.757813 L 2474.296875 716.757813 L 2474.296875 660.507813 C 2474.296875 629.023438 2502.070313 619.21875 2536.640625 620.546875 C 2568.90625 621.796875 2596.523438 625.351563 2596.523438 653.828125 L 2596.523438 734.296875 C 2596.523438 751.523438 2588.359375 768.007813 2575.976563 780.3125 L 2500.3125 855.3125 L 2500.3125 903.75 L 2546.328125 903.75 Z M 3406.835938 927.890625 L 3333.515625 876.914063 C 3321.445313 868.515625 3301.914063 874.21875 3293.515625 886.289063 L 3260.117188 934.335938 L 3291.640625 957.773438 L 3320.859375 915.78125 L 3376.015625 954.960938 L 3317.929688 1038.554688 L 3260.976563 999.0625 C 3240.039063 984.570313 3221.09375 990.429688 3207.148438 1010.46875 L 3141.679688 1104.648438 C 3133.28125 1116.71875 3136.289063 1133.476563 3148.359375 1141.835938 L 3221.679688 1192.851563 C 3233.75 1201.210938 3250.507813 1198.203125 3258.90625 1186.132813 L 3410.703125 967.773438 C 3419.101563 955.742188 3418.90625 936.289063 3406.835938 927.890625 Z M 3295.234375 1071.132813 L 3235.546875 1156.992188 L 3179.609375 1118.320313 L 3239.257813 1032.460938 Z M 3436.640625 1367.65625 L 3526.367188 1169.84375 L 3559.101563 1201.796875 L 3507.34375 1257.382813 L 3537.03125 1284.765625 L 3659.570313 1147.773438 L 3629.882813 1121.132813 L 3584.21875 1172.109375 L 3516.484375 1107.421875 L 3409.257813 1340.976563 Z M 3551.171875 1496.757813 L 3592.578125 1451.445313 L 3620 1477.34375 L 3600.195313 1497.890625 L 3626.09375 1535.195313 L 3816.367188 1321.289063 L 3840.703125 1354.023438 L 3624.335938 1598.515625 Z M 3551.171875 1496.757813 " transform="matrix(0.1,0,0,-0.1,0,479)"/>
</g>
</svg>
